<?xml version="1.0" encoding="utf-8"?>
<!-- Generator: Adobe Illustrator 19.2.0, SVG Export Plug-In . SVG Version: 6.00 Build 0)  -->
<svg version="1.1" id="Layer_1" xmlns="http://www.w3.org/2000/svg" xmlns:xlink="http://www.w3.org/1999/xlink" x="0px" y="0px"
	 viewBox="0 0 48 48" style="enable-background:new 0 0 48 48;" xml:space="preserve">
<title>Facebook-black</title>
<path d="M25.6,48h-23C1.2,48,0,46.8,0,45.3c0,0,0,0,0,0V2.7C0,1.2,1.2,0,2.6,0c0,0,0,0,0,0h42.7C46.8,0,48,1.2,48,2.6c0,0,0,0,0,0
	v42.7c0,1.5-1.2,2.6-2.6,2.6H33.1V29.4h6.2l0.9-7.2h-7.2v-4.6c0-2.1,0.6-3.5,3.6-3.5l3.8,0V7.5c-0.7-0.1-2.9-0.3-5.6-0.3
	c-5.5,0-9.3,3.4-9.3,9.6v5.3h-6.3v7.2h6.3C25.6,29.4,25.6,48,25.6,48z"/>
</svg>
