<?xml version="1.0" encoding="utf-8"?>
<!-- Generator: Adobe Illustrator 19.2.0, SVG Export Plug-In . SVG Version: 6.00 Build 0)  -->
<svg version="1.1" id="Layer_1" xmlns="http://www.w3.org/2000/svg" xmlns:xlink="http://www.w3.org/1999/xlink" x="0px" y="0px"
	 viewBox="0 0 66 66" style="enable-background:new 0 0 66 66;" xml:space="preserve">
<title>GooglePlus-black</title>
<path d="M58.7,29.3V22h-5.2v7.3h-7.5v5.2h7.5v7.5h5.2v-7.5H66v-5.2H58.7z M21,28.8v8.3c0,0,8.1,0,11.3,0c-1.8,5.4-4.5,8.3-11.3,8.3
	c-6.9,0-12.2-5.6-12.2-12.5S14.1,20.5,21,20.5c3.6,0,6,1.3,8.1,3.1c1.7-1.7,1.6-2,6-6.1C31.2,13.9,26.2,12,21,12C9.4,12,0,21.4,0,33
	s9.4,21,21,21c17.3,0,21.5-15.1,20.1-25.2C41.1,28.8,21,28.8,21,28.8z"/>
</svg>
