<?xml version="1.0" encoding="utf-8"?>
<!-- Generator: Adobe Illustrator 19.2.0, SVG Export Plug-In . SVG Version: 6.00 Build 0)  -->
<svg version="1.1" id="Layer_1" xmlns="http://www.w3.org/2000/svg" xmlns:xlink="http://www.w3.org/1999/xlink" x="0px" y="0px"
	 viewBox="0 0 48.3 48.3" style="enable-background:new 0 0 48.3 48.3;" xml:space="preserve">
<title>Pinterest-black</title>
<path d="M24.2,0.2c-13.3,0-24,10.7-24,24c0,9.8,5.9,18.3,14.4,22c-0.1-1.7,0-3.7,0.4-5.5c0.5-1.9,3.1-13.1,3.1-13.1
	s-0.8-1.5-0.8-3.8c0-3.6,2.1-6.2,4.6-6.2c2.2,0,3.2,1.6,3.2,3.6c0,2.2-1.4,5.5-2.1,8.5c-0.6,2.5,1.3,4.6,3.8,4.6
	c4.5,0,7.6-5.8,7.6-12.8c0-5.3-3.5-9.2-10-9.2c-7.3,0-11.8,5.4-11.8,11.5c0,2.1,0.6,3.6,1.6,4.7c0.4,0.5,0.5,0.7,0.3,1.3
	c-0.1,0.4-0.4,1.5-0.5,1.9c-0.2,0.6-0.7,0.8-1.2,0.6c-3.4-1.4-4.9-5-4.9-9.2c0-6.8,5.7-15,17.2-15c9.2,0,15.2,6.6,15.2,13.7
	c0,9.4-5.2,16.5-13,16.5c-2.6,0-5-1.4-5.9-3c0,0-1.4,5.5-1.7,6.6c-0.5,1.8-1.5,3.7-2.4,5.1c2.2,0.6,4.4,1,6.8,1
	c13.3,0,24-10.7,24-24C48.2,10.9,37.4,0.2,24.2,0.2"/>
</svg>
