<?xml version="1.0" encoding="utf-8"?>
<!-- Generator: Adobe Illustrator 19.2.0, SVG Export Plug-In . SVG Version: 6.00 Build 0)  -->
<svg version="1.1" id="Layer_1" xmlns="http://www.w3.org/2000/svg" xmlns:xlink="http://www.w3.org/1999/xlink" x="0px" y="0px"
	 viewBox="0 0 419.2 419.2" style="enable-background:new 0 0 419.2 419.2;" xml:space="preserve">
<path d="M304.2,292.4l-11.8,11.8L208,220l-84,83.8L112.2,292l84-83.8l-84-83.8l11.8-11.8l84,83.8l84.4-84.2l11.8,11.8l-84.4,84.2
	L304.2,292.4L304.2,292.4z M304.2,292.4l-11.8,11.8L208,220l-84,83.8L112.2,292l84-83.8l-84-83.8l11.8-11.8l84,83.8l84.4-84.2
	l11.8,11.8l-84.4,84.2L304.2,292.4L304.2,292.4z M210.2,2.2c-114.9,0-208,93.1-208,208s93.1,208,208,208s208-93.1,208-208
	S325.1,2.2,210.2,2.2z M210.2,400.9c-105.1,0-190.7-85.5-190.7-190.7c0-105.1,85.5-190.7,190.7-190.7
	c105.1,0,190.7,85.5,190.7,190.7C400.9,315.3,315.3,400.9,210.2,400.9z"/>
</svg>
