<?xml version="1.0" encoding="utf-8"?>
<!-- Generator: Adobe Illustrator 19.2.0, SVG Export Plug-In . SVG Version: 6.00 Build 0)  -->
<svg version="1.1" id="Layer_1" xmlns="http://www.w3.org/2000/svg" xmlns:xlink="http://www.w3.org/1999/xlink" x="0px" y="0px"
	 viewBox="0 0 323 323" style="enable-background:new 0 0 323 323;" xml:space="preserve">
<path d="M269.3,269.9c-12.9-4.6-31.4-6.2-43.2-8.8c-6.8-1.5-16.7-5.3-20-9.2c-3.3-4-1.3-40.9-1.3-40.9s6.1-9.6,9.4-18
	s6.9-31.4,6.9-31.4s6.8,0,9.2-11.9c2.6-13,6.6-18.4,6.1-28.1c-0.5-9-5.2-9.5-5.7-9.5c0,0,4.9-13.6,5.6-42.4C237.1,35.6,211,2,162,2
	S87,35.5,87.7,69.6c0.6,28.7,5.6,42.4,5.6,42.4c-0.5,0-5.2,0.5-5.7,9.5c-0.5,9.7,3.6,14.9,6.1,27.9c2.4,11.9,9.2,12,9.2,12
	s3.6,23.1,6.9,31.5c3.3,8.5,9.4,18,9.4,18s2,36.9-1.3,40.9s-13.2,7.7-20,9.2c-11.9,2.6-30.3,4.3-43.2,8.9S2,290,2,322h320
	C322,290,282.2,274.5,269.3,269.9z"/>
</svg>
