<svg id="ATLAS" data-name="Horizontal ATLAS" xmlns="http://www.w3.org/2000/svg" viewBox="0 0 730.65 85.01"><defs><style>.cls-1{fill:#fff;}</style></defs><title>logo</title><g id="ATLAS"><g id="Atlas-2" data-name="Atlas"><polygon id="T" class="cls-1" points="198.09 85.01 198.09 49.46 158.03 49.46 158.03 36.96 198.09 36.96 198.09 13.91 158.03 13.91 158.03 1.42 250.63 1.42 250.63 13.91 210.58 13.91 210.58 36.96 250.63 36.96 250.63 49.46 210.58 49.46 210.58 85.01 198.09 85.01"/><polygon id="L" class="cls-1" points="337.11 85.01 337.11 1.42 349.6 1.42 349.6 72.51 394.57 72.51 394.57 85.01 337.11 85.01"/><polygon id="S" class="cls-1" points="647.05 83.76 647.05 71.27 718.15 71.27 718.15 48.19 647.05 48.19 647.05 0.13 730.64 0.13 730.64 12.63 659.55 12.63 659.55 35.7 730.64 35.7 730.64 83.76 647.05 83.76"/><path id="A" class="cls-1" d="M217.74,295.25l-48.41-20.42L161,295.25H147.53L157.81,270l-10.13-4.27,0-13.55,14.82,6.25L182,210.56h16.79l34.43,84.68H217.74Zm-43.71-32,39.42,16.63-23.09-56.79Z" transform="translate(-147.53 -210.56)"/><polygon id="A-2" data-name="A" class="cls-1" points="556.68 84.81 527.35 12.65 498 84.81 484.52 84.81 518.95 0.13 535.74 0.13 570.17 84.81 556.68 84.81"/></g></g></svg>
